<?xml version="1.0" encoding="UTF-8"?>
<svg width="437px" height="318px" viewBox="0 0 437 318" version="1.1" xmlns="http://www.w3.org/2000/svg" xmlns:xlink="http://www.w3.org/1999/xlink">
    <title>tiny-space</title>
    <g id="Page-1" stroke="none" stroke-width="1" fill="none" fill-rule="evenodd" stroke-linecap="round" stroke-linejoin="round">
        <g id="tiny-space" transform="translate(9.000000, 9.000000)" stroke="#0A0A0A" stroke-width="17">
            <path d="M119,150 L359,150 C359,83.72583 305.27417,30 239,30 L239,270 C262.869484,270 285.761336,266.839295 302.63961,261.213203 C319.517884,255.587112 329,247.956495 329,240 L134,240 C142.284271,240 149,159.411255 149,60 L329,60 M15,270 L15,135 C15,110.147186 8.28427125,90 0,90 C8.28427125,90 15,76.5685425 15,60 C15,76.5685425 28.4314575,90 45,90 M59,120 C59,169.705627 139.588745,210 239,210 C338.411255,210 419,169.705627 419,120 M89,120 C89,53.72583 156.157288,0 239,0 C321.842712,0 389,53.72583 389,120 M89,195 C89,252.989899 156.157288,300 239,300 C321.842712,300 389,252.989899 389,195" id="Shape"></path>
        </g>
    </g>
</svg>